<svg xmlns="http://www.w3.org/2000/svg" width="160" height="160" viewBox="0 0 160 160"><defs><linearGradient id="b" x2="1" y2="1"><stop stop-color="#d9f0ff"/><stop offset="1" stop-color="#82c1fa"/></linearGradient></defs><circle cx="80" cy="80" r="80" fill="url(#b)"/><path d="M25 160v-23q5-23 35-31h40q30 8 35 31v23" fill="#3878d2"/><path d="m61 105 19 22 20-22-6-10H67" fill="#f2bd9f"/><path d="m60 106 20 21-13 13-14-27m47-7-20 21 13 13 14-27" fill="#edf7ff"/><ellipse cx="80" cy="70" rx="29" ry="36" fill="#ffd5b8"/><path d="M51 73q-12-40 15-48 5-18 30-9 27 8 18 43l-7 18-3-34q-17 8-38-2-13 11-10 32" fill="#233d5c"/><path d="M53 66q-11-5-7 9 2 8 10 7m51-16q10-4 6 10-2 7-9 7" fill="#ffd5b8"/><path d="M67 68v5m25-5v5" stroke="#3b455a" stroke-width="3" stroke-linecap="round"/><path d="m79 72-3 11h6" stroke="#db9b7e" fill="none" stroke-width="2"/><path d="M73 91q8 5 15-1" stroke="#ba776b" fill="none" stroke-width="2" stroke-linecap="round"/></svg>